<svg height="3582" width="720" xmlns="http://www.w3.org/2000/svg">
<rect height="3582" fill="#555" width="720"></rect>
<text fill="#7f7" font-family="Courier New" font-size="12" xml:space="preserve">
<tspan x="10" y="26">10 megabytes installed</tspan>
<tspan x="10" y="42"></tspan>
<tspan x="10" y="58">node_modules</tspan>
<tspan x="10" y="74">└─┬ template@0.17.5 </tspan>
<tspan x="10" y="90">  ├── arr-flatten@1.0.3 </tspan>
<tspan x="10" y="106">  ├── array-sort@0.1.2 </tspan>
<tspan x="10" y="122">  ├─┬ assign-value@0.1.2 </tspan>
<tspan x="10" y="138">  │ ├─┬ get-value@1.3.1 </tspan>
<tspan x="10" y="154">  │ │ └── noncharacters@1.1.0 </tspan>
<tspan x="10" y="170">  │ └─┬ set-value@0.2.0 </tspan>
<tspan x="10" y="186">  │   └── isobject@1.0.2 </tspan>
<tspan x="10" y="202">  ├── async-each@0.1.6 </tspan>
<tspan x="10" y="218">  ├─┬ clone-deep@0.2.4 </tspan>
<tspan x="10" y="234">  │ ├── is-plain-object@2.0.1 </tspan>
<tspan x="10" y="250">  │ ├── kind-of@3.2.0 </tspan>
<tspan x="10" y="266">  │ ├── lazy-cache@1.0.4 </tspan>
<tspan x="10" y="282">  │ └── shallow-clone@0.1.2 </tspan>
<tspan x="10" y="298">  ├─┬ collection-visit@0.2.3 </tspan>
<tspan x="10" y="314">  │ ├─┬ lazy-cache@2.0.2 </tspan>
<tspan x="10" y="330">  │ │ └─┬ set-getter@0.1.0 </tspan>
<tspan x="10" y="346">  │ │   └─┬ to-object-path@0.3.0 </tspan>
<tspan x="10" y="362">  │ │     └── kind-of@3.2.0 </tspan>
<tspan x="10" y="378">  │ ├─┬ map-visit@0.1.5 </tspan>
<tspan x="10" y="394">  │ │ └── lazy-cache@2.0.2 </tspan>
<tspan x="10" y="410">  │ └─┬ object-visit@0.3.4 </tspan>
<tspan x="10" y="426">  │   └── isobject@2.1.0 </tspan>
<tspan x="10" y="442">  ├── component-emitter@1.2.1 </tspan>
<tspan x="10" y="458">  ├─┬ copy@0.1.3 </tspan>
<tspan x="10" y="474">  │ ├── async@1.5.2 </tspan>
<tspan x="10" y="490">  │ ├── bluebird@2.11.0 </tspan>
<tspan x="10" y="506">  │ ├── glob-parent@1.3.0 </tspan>
<tspan x="10" y="522">  │ ├── graceful-fs@4.1.11 </tspan>
<tspan x="10" y="538">  │ ├─┬ lazy-globby@0.1.1 </tspan>
<tspan x="10" y="554">  │ │ └── lazy-cache@0.1.0 </tspan>
<tspan x="10" y="570">  │ └─┬ mkdirp@0.5.1 </tspan>
<tspan x="10" y="586">  │   └── minimist@0.0.8 </tspan>
<tspan x="10" y="602">  ├── dashify@0.2.2 </tspan>
<tspan x="10" y="618">  ├─┬ define-property@0.2.5 </tspan>
<tspan x="10" y="634">  │ └─┬ is-descriptor@0.1.5 </tspan>
<tspan x="10" y="650">  │   ├─┬ is-accessor-descriptor@0.1.6 </tspan>
<tspan x="10" y="666">  │   │ └── kind-of@3.2.0 </tspan>
<tspan x="10" y="682">  │   ├─┬ is-data-descriptor@0.1.4 </tspan>
<tspan x="10" y="698">  │   │ └── kind-of@3.2.0 </tspan>
<tspan x="10" y="714">  │   ├── kind-of@3.2.0 </tspan>
<tspan x="10" y="730">  │   └── lazy-cache@2.0.2 </tspan>
<tspan x="10" y="746">  ├── delegate-properties@0.3.0 </tspan>
<tspan x="10" y="762">  ├─┬ detect-conflicts@0.1.1 </tspan>
<tspan x="10" y="778">  │ ├─┬ ansi-bold@0.1.1 </tspan>
<tspan x="10" y="794">  │ │ └── ansi-wrap@0.1.0 </tspan>
<tspan x="10" y="810">  │ ├── ansi-cyan@0.1.1 </tspan>
<tspan x="10" y="826">  │ ├── ansi-gray@0.1.1 </tspan>
<tspan x="10" y="842">  │ ├── ansi-green@0.1.1 </tspan>
<tspan x="10" y="858">  │ ├── ansi-red@0.1.1 </tspan>
<tspan x="10" y="874">  │ ├── ansi-yellow@0.1.1 </tspan>
<tspan x="10" y="890">  │ ├── diff@2.2.3 </tspan>
<tspan x="10" y="906">  │ ├── error-symbol@0.1.0 </tspan>
<tspan x="10" y="922">  │ ├─┬ inquirer@0.9.0 </tspan>
<tspan x="10" y="938">  │ │ ├── ansi-regex@2.1.1 </tspan>
<tspan x="10" y="954">  │ │ ├─┬ chalk@1.1.3 </tspan>
<tspan x="10" y="970">  │ │ │ ├── ansi-styles@2.2.1 </tspan>
<tspan x="10" y="986">  │ │ │ ├── escape-string-regexp@1.0.5 </tspan>
<tspan x="10" y="1002">  │ │ │ ├── has-ansi@2.0.0 </tspan>
<tspan x="10" y="1018">  │ │ │ └── supports-color@2.0.0 </tspan>
<tspan x="10" y="1034">  │ │ ├── cli-width@1.1.1 </tspan>
<tspan x="10" y="1050">  │ │ ├─┬ figures@1.7.0 </tspan>
<tspan x="10" y="1066">  │ │ │ └── object-assign@4.1.1 </tspan>
<tspan x="10" y="1082">  │ │ ├── lodash@3.10.1 </tspan>
<tspan x="10" y="1098">  │ │ ├─┬ readline2@0.1.1 </tspan>
<tspan x="10" y="1114">  │ │ │ ├── mute-stream@0.0.4 </tspan>
<tspan x="10" y="1130">  │ │ │ └─┬ strip-ansi@2.0.1 </tspan>
<tspan x="10" y="1146">  │ │ │   └── ansi-regex@1.1.1 </tspan>
<tspan x="10" y="1162">  │ │ ├── run-async@0.1.0 </tspan>
<tspan x="10" y="1178">  │ │ ├── rx-lite@2.5.2 </tspan>
<tspan x="10" y="1194">  │ │ ├── strip-ansi@3.0.1 </tspan>
<tspan x="10" y="1210">  │ │ └── through@2.3.8 </tspan>
<tspan x="10" y="1226">  │ ├── is-binary@0.1.0 </tspan>
<tspan x="10" y="1242">  │ ├── success-symbol@0.1.0 </tspan>
<tspan x="10" y="1258">  │ └── warning-symbol@0.1.0 </tspan>
<tspan x="10" y="1274">  ├─┬ en-route@0.7.5 </tspan>
<tspan x="10" y="1290">  │ ├─┬ debug@2.6.4 </tspan>
<tspan x="10" y="1306">  │ │ └── ms@0.7.3 </tspan>
<tspan x="10" y="1322">  │ ├── kind-of@3.2.0 </tspan>
<tspan x="10" y="1338">  │ ├── lazy-cache@1.0.4 </tspan>
<tspan x="10" y="1354">  │ └─┬ path-to-regexp@1.7.0 </tspan>
<tspan x="10" y="1370">  │   └── isarray@0.0.1 </tspan>
<tspan x="10" y="1386">  ├─┬ engine-cache@0.16.2 </tspan>
<tspan x="10" y="1402">  │ ├─┬ async-helpers@0.3.14 </tspan>
<tspan x="10" y="1418">  │ │ ├── co@4.6.0 </tspan>
<tspan x="10" y="1434">  │ │ ├── kind-of@3.2.0 </tspan>
<tspan x="10" y="1450">  │ │ └── safe-json-stringify@1.0.4 </tspan>
<tspan x="10" y="1466">  │ ├── lazy-cache@2.0.2 </tspan>
<tspan x="10" y="1482">  │ └─┬ mixin-deep@1.2.0 </tspan>
<tspan x="10" y="1498">  │   └── for-in@1.0.2 </tspan>
<tspan x="10" y="1514">  ├─┬ export-files@2.1.1 </tspan>
<tspan x="10" y="1530">  │ └── lazy-cache@1.0.4 </tspan>
<tspan x="10" y="1546">  ├── extend-shallow@2.0.1 </tspan>
<tspan x="10" y="1562">  ├─┬ filter-values@0.4.0 </tspan>
<tspan x="10" y="1578">  │ └─┬ is-match@0.4.1 </tspan>
<tspan x="10" y="1594">  │   └── deep-equal@1.0.1 </tspan>
<tspan x="10" y="1610">  ├── for-in@0.1.8 </tspan>
<tspan x="10" y="1626">  ├─┬ for-own@0.1.5 </tspan>
<tspan x="10" y="1642">  │ └── for-in@1.0.2 </tspan>
<tspan x="10" y="1658">  ├── get-value@2.0.6 </tspan>
<tspan x="10" y="1674">  ├─┬ group-array@0.3.3 </tspan>
<tspan x="10" y="1690">  │ ├── kind-of@3.2.0 </tspan>
<tspan x="10" y="1706">  │ ├── split-string@1.0.1 </tspan>
<tspan x="10" y="1722">  │ └─┬ union-value@0.2.4 </tspan>
<tspan x="10" y="1738">  │   ├── arr-union@3.1.0 </tspan>
<tspan x="10" y="1754">  │   └── set-value@0.4.3 </tspan>
<tspan x="10" y="1770">  ├── has-values@0.1.4 </tspan>
<tspan x="10" y="1786">  ├─┬ helper-cache@0.7.2 </tspan>
<tspan x="10" y="1802">  │ └─┬ lodash.bind@3.1.0 </tspan>
<tspan x="10" y="1818">  │   ├─┬ lodash._createwrapper@3.2.0 </tspan>
<tspan x="10" y="1834">  │   │ └── lodash._root@3.0.1 </tspan>
<tspan x="10" y="1850">  │   ├── lodash._replaceholders@3.0.0 </tspan>
<tspan x="10" y="1866">  │   └── lodash.restparam@3.6.1 </tspan>
<tspan x="10" y="1882">  ├── inflection@1.12.0 </tspan>
<tspan x="10" y="1898">  ├── is-extendable@0.1.1 </tspan>
<tspan x="10" y="1914">  ├─┬ is-glob@2.0.1 </tspan>
<tspan x="10" y="1930">  │ └── is-extglob@1.0.0 </tspan>
<tspan x="10" y="1946">  ├─┬ kind-of@2.0.1 </tspan>
<tspan x="10" y="1962">  │ └── is-buffer@1.1.5 </tspan>
<tspan x="10" y="1978">  ├─┬ layouts@0.10.6 </tspan>
<tspan x="10" y="1994">  │ ├─┬ delimiter-regex@1.3.1 </tspan>
<tspan x="10" y="2010">  │ │ └─┬ extend-shallow@1.1.4 </tspan>
<tspan x="10" y="2026">  │ │   └── kind-of@1.1.0 </tspan>
<tspan x="10" y="2042">  │ └─┬ falsey@0.2.1 </tspan>
<tspan x="10" y="2058">  │   └── kind-of@1.1.0 </tspan>
<tspan x="10" y="2074">  ├── lazy-cache@0.2.7 </tspan>
<tspan x="10" y="2090">  ├─┬ load-templates@0.8.9 </tspan>
<tspan x="10" y="2106">  │ ├─┬ array-union@1.0.2 </tspan>
<tspan x="10" y="2122">  │ │ └── array-uniq@1.0.3 </tspan>
<tspan x="10" y="2138">  │ ├── defaults-deep@0.2.3 </tspan>
<tspan x="10" y="2154">  │ └─┬ globby@2.1.0 </tspan>
<tspan x="10" y="2170">  │   └── object-assign@3.0.0 </tspan>
<tspan x="10" y="2186">  ├─┬ loader-cache@0.6.1 </tspan>
<tspan x="10" y="2202">  │ ├── arrayify-compact@0.2.0 </tspan>
<tspan x="10" y="2218">  │ └─┬ isobject@2.1.0 </tspan>
<tspan x="10" y="2234">  │   └── isarray@1.0.0 </tspan>
<tspan x="10" y="2250">  ├─┬ matched@0.3.2 </tspan>
<tspan x="10" y="2266">  │ ├── async-array-reduce@0.1.0 </tspan>
<tspan x="10" y="2282">  │ ├─┬ glob@5.0.15 </tspan>
<tspan x="10" y="2298">  │ │ ├─┬ inflight@1.0.6 </tspan>
<tspan x="10" y="2314">  │ │ │ └── wrappy@1.0.2 </tspan>
<tspan x="10" y="2330">  │ │ ├── inherits@2.0.3 </tspan>
<tspan x="10" y="2346">  │ │ ├─┬ minimatch@3.0.3 </tspan>
<tspan x="10" y="2362">  │ │ │ └─┬ brace-expansion@1.1.7 </tspan>
<tspan x="10" y="2378">  │ │ │   ├── balanced-match@0.4.2 </tspan>
<tspan x="10" y="2394">  │ │ │   └── concat-map@0.0.1 </tspan>
<tspan x="10" y="2410">  │ │ ├── once@1.4.0 </tspan>
<tspan x="10" y="2426">  │ │ └── path-is-absolute@1.0.1 </tspan>
<tspan x="10" y="2442">  │ ├── is-valid-glob@0.3.0 </tspan>
<tspan x="10" y="2458">  │ └─┬ resolve-dir@0.1.1 </tspan>
<tspan x="10" y="2474">  │   ├─┬ expand-tilde@1.2.2 </tspan>
<tspan x="10" y="2490">  │   │ └── os-homedir@1.0.2 </tspan>
<tspan x="10" y="2506">  │   └─┬ global-modules@0.2.3 </tspan>
<tspan x="10" y="2522">  │     └─┬ global-prefix@0.1.5 </tspan>
<tspan x="10" y="2538">  │       ├─┬ homedir-polyfill@1.0.1 </tspan>
<tspan x="10" y="2554">  │       │ └── parse-passwd@1.0.0 </tspan>
<tspan x="10" y="2570">  │       ├── ini@1.3.4 </tspan>
<tspan x="10" y="2586">  │       └─┬ which@1.2.14 </tspan>
<tspan x="10" y="2602">  │         └── isexe@2.0.0 </tspan>
<tspan x="10" y="2618">  ├─┬ micromatch@2.3.11 </tspan>
<tspan x="10" y="2634">  │ ├── arr-diff@2.0.0 </tspan>
<tspan x="10" y="2650">  │ ├── array-unique@0.2.1 </tspan>
<tspan x="10" y="2666">  │ ├─┬ braces@1.8.5 </tspan>
<tspan x="10" y="2682">  │ │ ├─┬ expand-range@1.8.2 </tspan>
<tspan x="10" y="2698">  │ │ │ └─┬ fill-range@2.2.3 </tspan>
<tspan x="10" y="2714">  │ │ │   ├─┬ is-number@2.1.0 </tspan>
<tspan x="10" y="2730">  │ │ │   │ └── kind-of@3.2.0 </tspan>
<tspan x="10" y="2746">  │ │ │   ├── isobject@2.1.0 </tspan>
<tspan x="10" y="2762">  │ │ │   ├─┬ randomatic@1.1.6 </tspan>
<tspan x="10" y="2778">  │ │ │   │ └── kind-of@3.2.0 </tspan>
<tspan x="10" y="2794">  │ │ │   └── repeat-string@1.6.1 </tspan>
<tspan x="10" y="2810">  │ │ ├── preserve@0.2.0 </tspan>
<tspan x="10" y="2826">  │ │ └── repeat-element@1.1.2 </tspan>
<tspan x="10" y="2842">  │ ├─┬ expand-brackets@0.1.5 </tspan>
<tspan x="10" y="2858">  │ │ └── is-posix-bracket@0.1.1 </tspan>
<tspan x="10" y="2874">  │ ├── extglob@0.3.2 </tspan>
<tspan x="10" y="2890">  │ ├── filename-regex@2.0.0 </tspan>
<tspan x="10" y="2906">  │ ├── kind-of@3.2.0 </tspan>
<tspan x="10" y="2922">  │ ├─┬ normalize-path@2.1.1 </tspan>
<tspan x="10" y="2938">  │ │ └── remove-trailing-separator@1.0.1 </tspan>
<tspan x="10" y="2954">  │ ├─┬ parse-glob@3.0.4 </tspan>
<tspan x="10" y="2970">  │ │ ├─┬ glob-base@0.3.0 </tspan>
<tspan x="10" y="2986">  │ │ │ └── glob-parent@2.0.0 </tspan>
<tspan x="10" y="3002">  │ │ └── is-dotfile@1.0.2 </tspan>
<tspan x="10" y="3018">  │ └─┬ regex-cache@0.4.3 </tspan>
<tspan x="10" y="3034">  │   ├── is-equal-shallow@0.1.3 </tspan>
<tspan x="10" y="3050">  │   └── is-primitive@2.0.0 </tspan>
<tspan x="10" y="3066">  ├── mixin-object@2.0.1 </tspan>
<tspan x="10" y="3082">  ├── object.omit@2.0.1 </tspan>
<tspan x="10" y="3098">  ├─┬ object.pick@1.2.0 </tspan>
<tspan x="10" y="3114">  │ └── isobject@2.1.0 </tspan>
<tspan x="10" y="3130">  ├── object.reduce@0.1.7 </tspan>
<tspan x="10" y="3146">  ├─┬ parse-filepath@0.6.3 </tspan>
<tspan x="10" y="3162">  │ ├─┬ is-absolute@0.2.6 </tspan>
<tspan x="10" y="3178">  │ │ ├─┬ is-relative@0.2.1 </tspan>
<tspan x="10" y="3194">  │ │ │ └─┬ is-unc-path@0.1.2 </tspan>
<tspan x="10" y="3210">  │ │ │   └── unc-path-regex@0.1.2 </tspan>
<tspan x="10" y="3226">  │ │ └── is-windows@0.2.0 </tspan>
<tspan x="10" y="3242">  │ └── map-cache@0.2.2 </tspan>
<tspan x="10" y="3258">  ├─┬ recent@0.1.0 </tspan>
<tspan x="10" y="3274">  │ └── get-value@1.3.1 </tspan>
<tspan x="10" y="3290">  ├─┬ relative@3.0.2 </tspan>
<tspan x="10" y="3306">  │ └── isobject@2.1.0 </tspan>
<tspan x="10" y="3322">  ├─┬ relative-dest@0.1.0 </tspan>
<tspan x="10" y="3338">  │ └── relative@1.2.0 </tspan>
<tspan x="10" y="3354">  ├─┬ rewrite-ext@0.2.0 </tspan>
<tspan x="10" y="3370">  │ └── ext-map@1.0.1 </tspan>
<tspan x="10" y="3386">  ├─┬ set-value@0.3.3 </tspan>
<tspan x="10" y="3402">  │ ├── isobject@2.1.0 </tspan>
<tspan x="10" y="3418">  │ └─┬ to-object-path@0.2.0 </tspan>
<tspan x="10" y="3434">  │   └── is-arguments@1.0.2 </tspan>
<tspan x="10" y="3450">  ├─┬ sort-object@3.0.2 </tspan>
<tspan x="10" y="3466">  │ ├─┬ bytewise@1.1.0 </tspan>
<tspan x="10" y="3482">  │ │ ├─┬ bytewise-core@1.2.3 </tspan>
<tspan x="10" y="3498">  │ │ │ └── typewise-core@1.2.0 </tspan>
<tspan x="10" y="3514">  │ │ └── typewise@1.0.3 </tspan>
<tspan x="10" y="3530">  │ ├── sort-asc@0.2.0 </tspan>
<tspan x="10" y="3546">  │ └── sort-desc@0.2.0 </tspan>
<tspan x="10" y="3562">  └── write@0.2.1</tspan>
</text>
</svg>
